<svg width="64" height="64" viewBox="0 0 64 64" fill="none" xmlns="http://www.w3.org/2000/svg">
<rect x="0.511963" y="0.521729" width="62.9559" height="62.9559" rx="15.8843" fill="url(#paint0_linear_155_1213)"/>
<path opacity="0.54" d="M43.3771 17.5442C49.7268 17.0309 53.822 24.1241 50.2027 29.3665L44.0588 38.2655C43.8279 38.6 43.6244 38.9525 43.4502 39.3197L38.8153 49.09C36.0849 54.8456 27.8945 54.8456 25.1641 49.09L20.5292 39.3197C20.355 38.9525 20.1515 38.6 19.9206 38.2655L13.7767 29.3665C10.1574 24.1241 14.2526 17.0309 20.6023 17.5442L31.3811 18.4154C31.7862 18.4481 32.1933 18.4481 32.5984 18.4154L43.3771 17.5442Z" fill="url(#paint1_linear_155_1213)"/>
<path d="M25.1642 14.9103C27.8946 9.1546 36.0851 9.15459 38.8155 14.9102L43.4503 24.6805C43.6245 25.0477 43.828 25.4002 44.059 25.7347L50.2028 34.6337C53.8222 39.8761 49.7269 46.9693 43.3772 46.4561L32.5985 45.5848C32.1934 45.5521 31.7863 45.5521 31.3812 45.5848L20.6025 46.4561C14.2527 46.9693 10.1575 39.8761 13.7768 34.6337L19.9207 25.7347C20.1516 25.4002 20.3552 25.0477 20.5294 24.6805L25.1642 14.9103Z" fill="url(#paint2_linear_155_1213)"/>
<circle cx="31.9898" cy="31.9995" r="8.36689" fill="white"/>
<circle cx="31.99" cy="31.9996" r="3.76572" fill="#F49630"/>
<defs>
<linearGradient id="paint0_linear_155_1213" x1="5.71389" y1="6.26557" x2="63.4679" y2="60.302" gradientUnits="userSpaceOnUse">
<stop stop-color="#FCF3B2"/>
<stop offset="0.517245" stop-color="#F6B96C"/>
<stop offset="1" stop-color="#EE7014"/>
</linearGradient>
<linearGradient id="paint1_linear_155_1213" x1="33.0834" y1="11.6857" x2="10.4488" y2="39.8556" gradientUnits="userSpaceOnUse">
<stop stop-color="#FBB846"/>
<stop offset="1" stop-color="#F64B0E"/>
</linearGradient>
<linearGradient id="paint2_linear_155_1213" x1="14.9438" y1="20.8955" x2="28.0223" y2="54.5826" gradientUnits="userSpaceOnUse">
<stop stop-color="#FBB846"/>
<stop offset="1" stop-color="#F64B0E"/>
</linearGradient>
</defs>
</svg>
