<svg width="18" height="22" viewBox="0 0 18 22" fill="none" xmlns="http://www.w3.org/2000/svg">
<path d="M17.25 5.375C17.25 7.653 13.556 9.5 9 9.5C4.444 9.5 0.75 7.653 0.75 5.375M17.25 5.375C17.25 3.097 13.556 1.25 9 1.25C4.444 1.25 0.75 3.097 0.75 5.375M17.25 5.375V16.625C17.25 18.903 13.556 20.75 9 20.75C4.444 20.75 0.75 18.903 0.75 16.625V5.375M17.25 5.375V9.125M0.75 5.375V9.125M17.25 9.125V12.875C17.25 15.153 13.556 17 9 17C4.444 17 0.75 15.153 0.75 12.875V9.125M17.25 9.125C17.25 11.403 13.556 13.25 9 13.25C4.444 13.25 0.75 11.403 0.75 9.125" stroke="white" stroke-width="1.5" stroke-linecap="round" stroke-linejoin="round"/>
</svg>
