<svg width="46" height="46" viewBox="0 0 46 46" fill="none" xmlns="http://www.w3.org/2000/svg">
<path d="M16 35.25V37.5997C16.0001 38.5192 15.819 39.4298 15.4671 40.2794C15.1152 41.129 14.5993 41.9009 13.949 42.551L12.5 44H33.5L32.051 42.551C31.4007 41.9009 30.8848 41.129 30.5329 40.2794C30.181 39.4298 29.9999 38.5192 30 37.5997V35.25M44 7.25V30C44 31.3924 43.4469 32.7277 42.4623 33.7123C41.4777 34.6969 40.1424 35.25 38.75 35.25H7.25C5.85761 35.25 4.52226 34.6969 3.53769 33.7123C2.55312 32.7277 2 31.3924 2 30V7.25M44 7.25C44 5.85761 43.4469 4.52226 42.4623 3.53769C41.4777 2.55312 40.1424 2 38.75 2H7.25C5.85761 2 4.52226 2.55312 3.53769 3.53769C2.55312 4.52226 2 5.85761 2 7.25M44 7.25V23C44 24.3924 43.4469 25.7277 42.4623 26.7123C41.4777 27.6969 40.1424 28.25 38.75 28.25H7.25C5.85761 28.25 4.52226 27.6969 3.53769 26.7123C2.55312 25.7277 2 24.3924 2 23V7.25" stroke="white" stroke-width="3.5" stroke-linecap="round" stroke-linejoin="round"/>
</svg>
