<svg width="39" height="48" viewBox="0 0 39 48" fill="none" xmlns="http://www.w3.org/2000/svg">
<path d="M13.5354 16.9066L36.7234 10.2814M36.7234 24.753V33.0344C36.7232 34.1141 36.3713 35.1643 35.7211 36.0261C35.0708 36.888 34.1575 37.5146 33.1194 37.8111L30.2043 38.6437C29.6988 38.7964 29.1681 38.8471 28.6429 38.7928C28.1176 38.7385 27.6085 38.5802 27.145 38.3273C26.6815 38.0743 26.273 37.7317 25.9432 37.3194C25.6133 36.907 25.3688 36.4332 25.2238 35.9255C25.0789 35.4178 25.0363 34.8863 25.0987 34.362C25.161 33.8376 25.3271 33.331 25.5871 32.8714C25.8471 32.4119 26.1959 32.0086 26.6133 31.6851C27.0306 31.3617 27.5081 31.1244 28.018 30.9872L33.1194 29.5297C34.1575 29.2332 35.0708 28.6066 35.7211 27.7447C36.3713 26.8828 36.7232 25.8326 36.7234 24.753ZM36.7234 24.753V2L13.5354 8.62515V31.3781M13.5354 31.3781V39.6596C13.5352 40.7392 13.1833 41.7894 12.533 42.6513C11.8828 43.5131 10.9695 44.1397 9.93133 44.4363L7.01626 45.2689C6.00671 45.5405 4.93082 45.4042 4.02092 44.8893C3.11101 44.3745 2.4401 43.5224 2.15304 42.5172C1.86598 41.5119 1.98582 40.434 2.48667 39.5164C2.98752 38.5987 3.8292 37.9148 4.82996 37.6124L9.93133 36.1549C10.9695 35.8583 11.8828 35.2317 12.533 34.3698C13.1833 33.508 13.5352 32.4578 13.5354 31.3781Z" stroke="white" stroke-width="3.31257" stroke-linecap="round" stroke-linejoin="round"/>
</svg>
