<svg width="19" height="22" viewBox="0 0 19 22" fill="none" xmlns="http://www.w3.org/2000/svg">
<path d="M9.41563 11.75C10.5636 11.75 11.6936 11.83 12.7986 11.987C13.8356 12.133 14.6646 12.953 14.6646 14C14.6646 17.728 12.3146 20.75 9.41463 20.75C6.51463 20.75 4.16563 17.728 4.16563 14C4.16563 12.954 4.99563 12.133 6.03163 11.987C7.1527 11.829 8.28347 11.7498 9.41563 11.75ZM9.41563 11.75C12.2986 11.75 15.0626 12.258 17.6226 13.19C17.5019 15.2513 17.1147 17.2882 16.4706 19.25M9.41563 11.75C6.53263 11.75 3.76863 12.258 1.20763 13.19C1.33263 15.294 1.72763 17.326 2.36063 19.25M9.41563 11.75C9.71989 11.7501 10.021 11.6884 10.3008 11.5688C10.5805 11.4491 10.8331 11.274 11.0432 11.054C11.2534 10.8339 11.4167 10.5735 11.5233 10.2886C11.63 10.0036 11.6777 9.69996 11.6636 9.39602M9.41563 11.75C9.11136 11.7501 8.81025 11.6884 8.53049 11.5688C8.25074 11.4491 7.99815 11.274 7.78802 11.054C7.57788 10.8339 7.41456 10.5735 7.30792 10.2886C7.20129 10.0036 7.15356 9.69996 7.16763 9.39602M11.6636 9.39602C11.6369 8.81784 11.3883 8.27221 10.9697 7.87254C10.551 7.47287 9.99443 7.24992 9.41563 7.25002M11.6636 9.39602C13.4396 9.23152 15.1925 8.86859 16.8876 8.31402C16.8326 7.18702 16.7006 6.08002 16.4956 5.00002M7.16763 9.39602C7.19438 8.81784 7.44292 8.27221 7.86158 7.87254C8.28025 7.47287 8.83682 7.24992 9.41563 7.25002M7.16763 9.39602C5.36063 9.22802 3.61263 8.86002 1.94463 8.31402C1.9984 7.20161 2.12938 6.09428 2.33663 5.00002M9.41563 7.25002C10.4106 7.25002 11.3866 7.17002 12.3376 7.01402C12.7406 6.94802 13.0776 6.65602 13.1326 6.25202C13.2351 5.47882 13.0957 4.69286 12.7336 4.00202M9.41563 7.25002C8.42063 7.25002 7.44563 7.17002 6.49363 7.01402C6.09163 6.94802 5.75363 6.65602 5.69863 6.25202C5.59289 5.47767 5.7328 4.68966 6.09863 3.99902M6.09863 3.99902C5.67268 3.71537 5.28456 3.37967 4.94363 2.99802C5.01363 2.36802 5.21363 1.77602 5.51763 1.25102M6.09863 3.99902C6.41697 3.39496 6.8942 2.89029 7.47883 2.53754C8.06347 2.18479 8.73332 1.99836 9.41613 1.99836C10.0989 1.99836 10.7688 2.18479 11.3534 2.53754C11.9381 2.89029 12.4153 3.39596 12.7336 4.00002C13.1606 3.71702 13.5486 3.38002 13.8886 3.00102C13.8208 2.38341 13.6249 1.78673 13.3136 1.24902" stroke="black" stroke-width="1.5" stroke-linecap="round" stroke-linejoin="round"/>
</svg>
