<svg width="62" height="62" viewBox="0 0 62 62" fill="none" xmlns="http://www.w3.org/2000/svg">
<rect x="62" y="62" width="62" height="62" rx="15.6431" transform="rotate(180 62 62)" fill="url(#paint0_linear_155_1145)"/>
<path d="M15.7292 11.5793L17.4898 16.0264H13.9685L15.7292 11.5793Z" fill="#FEFEFE"/>
<path d="M15.7292 20.1355L17.4898 16.0264H13.9685L15.7292 20.1355Z" fill="#FEFEFE"/>
<path d="M20.0072 15.8573L15.5602 17.618L15.5602 14.0967L20.0072 15.8573Z" fill="#FEFEFE"/>
<path d="M11.451 15.8573L15.5602 17.618L15.5602 14.0967L11.451 15.8573Z" fill="#FEFEFE"/>
<g opacity="0.3">
<path d="M48.0012 39.2229L49.0498 41.8714H46.9526L48.0012 39.2229Z" fill="#FEFEFE"/>
<path d="M48.0012 44.3188L49.0498 41.8716H46.9526L48.0012 44.3188Z" fill="#FEFEFE"/>
<path d="M50.5492 41.7708L47.9007 42.8194L47.9007 40.7222L50.5492 41.7708Z" fill="#FEFEFE"/>
<path d="M45.4534 41.7708L47.9007 42.8194L47.9007 40.7222L45.4534 41.7708Z" fill="#FEFEFE"/>
</g>
<circle cx="36.3385" cy="23.5357" r="12.3265" fill="url(#paint1_radial_155_1145)"/>
<path fill-rule="evenodd" clip-rule="evenodd" d="M37.4178 26.912C41.1838 27.1406 44.1674 30.2672 44.1674 34.0907C44.1674 38.0628 40.9474 41.2828 36.9753 41.2828H19.3313C15.3592 41.2828 12.1392 38.0628 12.1392 34.0907C12.1392 30.2672 15.1228 27.1406 18.8888 26.912C20.1371 22.9851 23.8129 20.1401 28.1533 20.1401C32.4936 20.1401 36.1695 22.9851 37.4178 26.912Z" fill="url(#paint2_linear_155_1145)"/>
<g filter="url(#filter0_b_155_1145)">
<path fill-rule="evenodd" clip-rule="evenodd" d="M37.4178 26.912C41.1838 27.1406 44.1674 30.2672 44.1674 34.0907C44.1674 38.0628 40.9474 41.2828 36.9753 41.2828H19.3313C15.3592 41.2828 12.1392 38.0628 12.1392 34.0907C12.1392 30.2672 15.1228 27.1406 18.8888 26.912C20.1371 22.9851 23.8129 20.1401 28.1533 20.1401C32.4936 20.1401 36.1695 22.9851 37.4178 26.912Z" fill="url(#paint3_linear_155_1145)"/>
</g>
<ellipse cx="20.956" cy="44.0684" rx="0.949062" ry="0.949062" fill="#FEFEFE"/>
<ellipse cx="27.0681" cy="44.0684" rx="0.949062" ry="0.949062" fill="#FEFEFE"/>
<ellipse cx="20.956" cy="47.9437" rx="0.949062" ry="0.949062" fill="#FEFEFE"/>
<ellipse cx="24.1305" cy="45.9664" rx="0.949062" ry="0.949062" fill="#FEFEFE"/>
<ellipse cx="24.1305" cy="49.8419" rx="0.949062" ry="0.949062" fill="#FEFEFE"/>
<ellipse cx="27.0681" cy="47.9437" rx="0.949062" ry="0.949062" fill="#FEFEFE"/>
<defs>
<filter id="filter0_b_155_1145" x="-6.93776" y="1.06322" width="70.182" height="59.2964" filterUnits="userSpaceOnUse" color-interpolation-filters="sRGB">
<feFlood flood-opacity="0" result="BackgroundImageFix"/>
<feGaussianBlur in="BackgroundImageFix" stdDeviation="9.53846"/>
<feComposite in2="SourceAlpha" operator="in" result="effect1_backgroundBlur_155_1145"/>
<feBlend mode="normal" in="SourceGraphic" in2="effect1_backgroundBlur_155_1145" result="shape"/>
</filter>
<linearGradient id="paint0_linear_155_1145" x1="93" y1="62" x2="93" y2="124" gradientUnits="userSpaceOnUse">
<stop stop-color="#9726F3"/>
<stop offset="1" stop-color="#DF2ECA"/>
</linearGradient>
<radialGradient id="paint1_radial_155_1145" cx="0" cy="0" r="1" gradientUnits="userSpaceOnUse" gradientTransform="translate(32.5834 27.9706) rotate(-15.4174) scale(16.6818)">
<stop stop-color="#FFEC5E"/>
<stop offset="1" stop-color="#F79100"/>
</radialGradient>
<linearGradient id="paint2_linear_155_1145" x1="28.1533" y1="20.1401" x2="28.1533" y2="41.2828" gradientUnits="userSpaceOnUse">
<stop stop-color="#FEFEFE"/>
<stop offset="1" stop-color="#FEFEFE" stop-opacity="0.52"/>
</linearGradient>
<linearGradient id="paint3_linear_155_1145" x1="28.1533" y1="20.1401" x2="28.1533" y2="41.2828" gradientUnits="userSpaceOnUse">
<stop stop-color="#FEFEFE"/>
<stop offset="1" stop-color="#FEFEFE" stop-opacity="0"/>
</linearGradient>
</defs>
</svg>
