<svg width="62" height="63" viewBox="0 0 62 63" fill="none" xmlns="http://www.w3.org/2000/svg">
<rect x="62" y="62.1028" width="62" height="62" rx="15.6431" transform="rotate(180 62 62.1028)" fill="url(#paint0_linear_155_1085)"/>
<mask id="mask0_155_1085" style="mask-type:alpha" maskUnits="userSpaceOnUse" x="0" y="0" width="62" height="62">
<rect width="62" height="62" rx="15.6431" fill="url(#paint1_linear_155_1085)"/>
</mask>
<g mask="url(#mask0_155_1085)">
<g opacity="0.2">
<path d="M74.0988 19.9756L19.7626 74.3117" stroke="white" stroke-width="0.953846"/>
<path d="M57.2305 3.10742L2.89432 57.4436" stroke="white" stroke-width="0.953846"/>
<path d="M81.5947 27.4719L27.2586 81.8081" stroke="white" stroke-width="0.953846"/>
<path d="M66.6016 12.4783L12.2654 66.8144" stroke="white" stroke-width="0.953846"/>
<path d="M77.8469 23.7236L23.5108 78.0598" stroke="white" stroke-width="0.953846"/>
<path d="M62.8533 8.73022L8.51712 63.0664" stroke="white" stroke-width="0.953846"/>
<path d="M85.343 31.22L31.0069 85.5561" stroke="white" stroke-width="0.953846"/>
<path d="M70.3505 16.2273L16.0143 70.5634" stroke="white" stroke-width="0.953846"/>
<path d="M75.9723 21.8491L21.6361 76.1853" stroke="white" stroke-width="0.953846"/>
<path d="M60.9797 6.85645L6.64359 61.1926" stroke="white" stroke-width="0.953846"/>
<path d="M83.4695 29.3464L29.1333 83.6826" stroke="white" stroke-width="0.953846"/>
<path d="M68.4758 14.3528L14.1397 68.6889" stroke="white" stroke-width="0.953846"/>
<path d="M79.7206 25.5974L25.3844 79.9336" stroke="white" stroke-width="0.953846"/>
<path d="M64.728 10.6047L10.3919 64.9409" stroke="white" stroke-width="0.953846"/>
<path d="M87.2177 33.0945L32.8815 87.4306" stroke="white" stroke-width="0.953846"/>
<path d="M72.224 18.1011L17.8878 72.4372" stroke="white" stroke-width="0.953846"/>
<path d="M44.1115 -10.0115L-10.2247 44.3247" stroke="white" stroke-width="0.953846"/>
<path d="M29.1188 -25.0044L-25.2174 29.3317" stroke="white" stroke-width="0.953846"/>
<path d="M51.6085 -2.5144L-2.72763 51.8217" stroke="white" stroke-width="0.953846"/>
<path d="M36.6154 -17.5078L-17.7208 36.8283" stroke="white" stroke-width="0.953846"/>
<path d="M47.8607 -6.26245L-6.47543 48.0737" stroke="white" stroke-width="0.953846"/>
<path d="M32.8671 -21.2561L-21.4691 33.08" stroke="white" stroke-width="0.953846"/>
<path d="M55.3568 1.23389L1.02066 55.57" stroke="white" stroke-width="0.953846"/>
<path d="M40.3632 -13.7598L-13.973 40.5764" stroke="white" stroke-width="0.953846"/>
<path d="M45.9861 -8.13696L-8.35007 46.1992" stroke="white" stroke-width="0.953846"/>
<path d="M30.9924 -23.1306L-23.3437 31.2055" stroke="white" stroke-width="0.953846"/>
<path d="M53.4825 -0.640625L-0.853606 53.6955" stroke="white" stroke-width="0.953846"/>
<path d="M38.4895 -15.6335L-15.8466 38.7026" stroke="white" stroke-width="0.953846"/>
<path d="M49.7344 -4.38892L-4.60178 49.9472" stroke="white" stroke-width="0.953846"/>
<path d="M34.7407 -19.3823L-19.5954 34.9538" stroke="white" stroke-width="0.953846"/>
<path d="M59.1051 4.98193L4.76895 59.3181" stroke="white" stroke-width="0.953846"/>
<path d="M42.2378 -11.8853L-12.0984 42.4509" stroke="white" stroke-width="0.953846"/>
</g>
</g>
<g opacity="0.2">
<path d="M14.991 22.3047C14.1463 22.3047 13.5675 21.4531 13.8785 20.6677C14.2776 19.6595 15.7044 19.6596 16.1035 20.6677C16.4145 21.4531 15.8357 22.3047 14.991 22.3047Z" fill="#FEFEFE"/>
<path d="M14.991 22.3047C14.1575 22.3047 13.5955 23.1569 13.9238 23.9231C14.3258 24.8614 15.6562 24.8614 16.0582 23.9231C16.3865 23.1569 15.8245 22.3047 14.991 22.3047Z" fill="#FEFEFE"/>
<path d="M14.822 22.1357C14.822 21.2909 15.6737 20.7122 16.4591 21.0231C17.4672 21.4223 17.4672 22.8491 16.4591 23.2482C15.6737 23.5591 14.822 22.9804 14.822 22.1357Z" fill="#FEFEFE"/>
<path d="M14.822 22.1357C14.822 21.3021 13.9698 20.7402 13.2037 21.0684C12.2653 21.4705 12.2653 22.8008 13.2037 23.2029C13.9698 23.5312 14.822 22.9692 14.822 22.1357Z" fill="#FEFEFE"/>
</g>
<g opacity="0.8">
<path d="M42.6159 20.0812C42.1936 20.0812 41.9042 19.6554 42.0597 19.2627C42.2592 18.7586 42.9726 18.7586 43.1722 19.2627C43.3277 19.6554 43.0383 20.0812 42.6159 20.0812Z" fill="#FEFEFE"/>
<path d="M42.6159 20.0812C42.1992 20.0812 41.9182 20.5073 42.0823 20.8904C42.2833 21.3596 42.9485 21.3596 43.1495 20.8904C43.3137 20.5073 43.0327 20.0812 42.6159 20.0812Z" fill="#FEFEFE"/>
<path d="M42.5315 19.9968C42.5315 19.5744 42.9573 19.285 43.35 19.4405C43.8541 19.6401 43.8541 20.3535 43.35 20.553C42.9573 20.7085 42.5315 20.4191 42.5315 19.9968Z" fill="#FEFEFE"/>
<path d="M42.5315 19.9968C42.5315 19.58 42.1054 19.299 41.7223 19.4632C41.2531 19.6642 41.2531 20.3294 41.7223 20.5304C42.1054 20.6945 42.5315 20.4135 42.5315 19.9968Z" fill="#FEFEFE"/>
</g>
<g opacity="0.2">
<path d="M48.3393 29.478C47.7572 29.478 47.3584 28.8912 47.5727 28.35C47.8477 27.6554 48.8308 27.6554 49.1059 28.35C49.3201 28.8912 48.9213 29.478 48.3393 29.478Z" fill="#FEFEFE"/>
<path d="M48.3393 29.478C47.7649 29.478 47.3777 30.0652 47.6039 30.5931C47.8809 31.2397 48.7976 31.2397 49.0746 30.5931C49.3008 30.0652 48.9136 29.478 48.3393 29.478Z" fill="#FEFEFE"/>
<path d="M48.2228 29.3616C48.2228 28.7796 48.8096 28.3808 49.3508 28.595C50.0454 28.87 50.0454 29.8532 49.3508 30.1282C48.8096 30.3425 48.2228 29.9437 48.2228 29.3616Z" fill="#FEFEFE"/>
<path d="M48.2229 29.3616C48.2229 28.7873 47.6356 28.4 47.1077 28.6262C46.4611 28.9033 46.4611 29.8199 47.1077 30.097C47.6356 30.3232 48.2229 29.9359 48.2229 29.3616Z" fill="#FEFEFE"/>
</g>
<path fill-rule="evenodd" clip-rule="evenodd" d="M29.9107 11.5357C29.2658 11.6184 28.6247 11.8181 28.0177 12.1438C25.3508 13.5748 24.3489 16.8968 25.7799 19.5637C27.2109 22.2306 30.5329 23.2325 33.1998 21.8015C33.8068 21.4757 34.3276 21.052 34.7531 20.5603C32.5648 20.8408 30.3315 19.7743 29.2262 17.7144C28.121 15.6546 28.4671 13.204 29.9107 11.5357Z" fill="#FEFEFE"/>
<g filter="url(#filter0_b_155_1085)">
<path fill-rule="evenodd" clip-rule="evenodd" d="M19.7592 32.3236C21.1042 28.0928 25.0645 25.0276 29.7408 25.0276C34.4171 25.0276 38.3775 28.0928 39.7224 32.3236C43.7799 32.5699 46.9945 35.9385 46.9945 40.058C46.9945 44.3375 43.5252 47.8067 39.2457 47.8067H20.236C15.9564 47.8067 12.4872 44.3375 12.4872 40.058C12.4872 35.9385 15.7017 32.5699 19.7592 32.3236Z" fill="url(#paint2_linear_155_1085)"/>
</g>
<path d="M32.9203 49.0787C32.9203 50.1323 32.0662 50.9864 31.0126 50.9864C29.959 50.9864 29.1049 50.1323 29.1049 49.0787C29.1049 47.7072 31.0126 44.6274 31.0126 44.6274C31.0126 44.6274 32.9203 47.7072 32.9203 49.0787Z" fill="#FEFEFE"/>
<path d="M28.469 46.8531C28.469 47.3799 28.0419 47.8069 27.5151 47.8069C26.9883 47.8069 26.5613 47.3799 26.5613 46.8531C26.5613 46.1673 27.5151 44.6274 27.5151 44.6274C27.5151 44.6274 28.469 46.1673 28.469 46.8531Z" fill="#FEFEFE"/>
<defs>
<filter id="filter0_b_155_1085" x="-6.58974" y="5.95067" width="72.6612" height="60.9329" filterUnits="userSpaceOnUse" color-interpolation-filters="sRGB">
<feFlood flood-opacity="0" result="BackgroundImageFix"/>
<feGaussianBlur in="BackgroundImageFix" stdDeviation="9.53846"/>
<feComposite in2="SourceAlpha" operator="in" result="effect1_backgroundBlur_155_1085"/>
<feBlend mode="normal" in="SourceGraphic" in2="effect1_backgroundBlur_155_1085" result="shape"/>
</filter>
<linearGradient id="paint0_linear_155_1085" x1="93" y1="62.1028" x2="93" y2="124.103" gradientUnits="userSpaceOnUse">
<stop stop-color="#0086EF"/>
<stop offset="1" stop-color="#00D4EF"/>
</linearGradient>
<linearGradient id="paint1_linear_155_1085" x1="23.3917" y1="54.3987" x2="23.3917" y2="0" gradientUnits="userSpaceOnUse">
<stop stop-color="#A65235"/>
<stop offset="1" stop-color="#FBAE93"/>
</linearGradient>
<linearGradient id="paint2_linear_155_1085" x1="29.7408" y1="25.0276" x2="29.7408" y2="55.6577" gradientUnits="userSpaceOnUse">
<stop stop-color="#FEFEFE"/>
<stop offset="1" stop-color="#009BEF"/>
</linearGradient>
</defs>
</svg>
