<svg width="38" height="48" viewBox="0 0 38 48" fill="none" xmlns="http://www.w3.org/2000/svg">
<path d="M27.5011 10.3982C27.5011 12.6529 26.6055 14.8152 25.0112 16.4094C23.4169 18.0037 21.2546 18.8994 19 18.8994C16.7454 18.8994 14.5831 18.0037 12.9888 16.4094C11.3945 14.8152 10.4989 12.6529 10.4989 10.3982C10.4989 8.14358 11.3945 5.98129 12.9888 4.38702C14.5831 2.79275 16.7454 1.89709 19 1.89709C21.2546 1.89709 23.4169 2.79275 25.0112 4.38702C26.6055 5.98129 27.5011 8.14358 27.5011 10.3982ZM2.00002 42.4033C2.07286 37.9427 3.89597 33.6894 7.07616 30.5607C10.2563 27.4321 14.5388 25.6787 19 25.6787C23.4612 25.6787 27.7437 27.4321 30.9239 30.5607C34.104 33.6894 35.9272 37.9427 36 42.4033C30.6667 44.8488 24.8673 46.1109 19 46.103C12.9336 46.103 7.1755 44.7791 2.00002 42.4033Z" stroke="white" stroke-width="3.40045" stroke-linecap="round" stroke-linejoin="round"/>
</svg>
